<svg width="24" height="24" viewBox="0 0 24 24" fill="none" xmlns="http://www.w3.org/2000/svg">
<path d="M8.74402 3.45561C8.68354 3.41819 8.63494 3.36434 8.6039 3.30035C8.57286 3.23636 8.56066 3.16486 8.56872 3.0942C8.57677 3.02353 8.60476 2.95662 8.64942 2.90126C8.69407 2.8459 8.75354 2.80438 8.8209 2.78154C10.1887 2.31025 11.6443 2.14944 13.082 2.31079C14.5197 2.47214 15.9035 2.9516 17.1328 3.71436C17.1773 3.74244 17.2155 3.7796 17.2447 3.8234C17.2739 3.86721 17.2936 3.91668 17.3024 3.96859C17.3113 4.02051 17.3091 4.0737 17.296 4.12472C17.2829 4.17573 17.2593 4.22341 17.2265 4.26467C16.141 5.65177 14.8099 6.82755 13.2993 7.73342C12.0791 6.01991 10.5307 4.56584 8.74402 3.45561ZM11.9606 8.43748C10.5914 6.56914 8.79001 5.06019 6.71059 4.03967C6.65104 4.01075 6.58482 3.99836 6.51885 4.00381C6.45288 4.00925 6.38959 4.03232 6.33559 4.07061C4.6522 5.27473 3.39381 6.98147 2.74121 8.94561C2.72482 8.99583 2.71922 9.04895 2.72478 9.10149C2.73035 9.15402 2.74695 9.20479 2.77351 9.25046C2.80006 9.29614 2.83597 9.33568 2.87887 9.36651C2.92177 9.39734 2.97071 9.41876 3.02246 9.42936C4.00098 9.64028 4.99897 9.74775 5.99996 9.74998C8.05864 9.7511 10.0928 9.30319 11.9606 8.43748ZM21.6918 10.9397C21.4534 8.76516 20.4894 6.73438 18.9553 5.17498C18.9179 5.13698 18.8728 5.1074 18.8231 5.0882C18.7733 5.069 18.72 5.06063 18.6668 5.06365C18.6136 5.06667 18.5616 5.081 18.5143 5.10569C18.4671 5.13039 18.4256 5.16488 18.3928 5.20686C17.2062 6.71846 15.7548 8.00182 14.1093 8.99436C14.6234 9.88495 15.0489 10.8238 15.3797 11.7975C16.7228 11.4334 18.1083 11.2493 19.5 11.25C20.0951 11.25 20.6898 11.2835 21.2812 11.3503C21.3363 11.3558 21.3918 11.349 21.4439 11.3305C21.4961 11.312 21.5435 11.2822 21.5827 11.2432C21.6219 11.2042 21.6521 11.1571 21.6709 11.1051C21.6898 11.0531 21.697 10.9976 21.6918 10.9425V10.9397ZM15.794 13.2365C16.0719 14.4186 16.2119 15.6288 16.2112 16.8431C16.2106 18.0054 16.0814 19.164 15.8259 20.2978C15.8096 20.3672 15.8134 20.4399 15.8369 20.5073C15.8604 20.5746 15.9026 20.6339 15.9586 20.6781C16.0146 20.7222 16.0821 20.7495 16.1531 20.7568C16.224 20.764 16.2956 20.7508 16.3593 20.7187C17.7812 20.0054 19.0075 18.9559 19.9317 17.6611C20.856 16.3663 21.4502 14.8656 21.6628 13.289C21.6692 13.2399 21.6658 13.1899 21.6528 13.1421C21.6398 13.0942 21.6174 13.0494 21.587 13.0103C21.5566 12.9712 21.5187 12.9384 21.4755 12.914C21.4324 12.8896 21.3848 12.874 21.3356 12.8681C19.4817 12.6295 17.5989 12.7569 15.794 13.2431V13.2365ZM13.9528 12.2569C13.6505 11.3704 13.2614 10.5159 12.7912 9.70592C10.6721 10.724 8.35093 11.2517 5.99996 11.25C4.90102 11.25 3.80508 11.1354 2.72996 10.9078C2.67809 10.8968 2.62449 10.897 2.57269 10.9083C2.52089 10.9196 2.47208 10.9418 2.42946 10.9733C2.38685 11.0048 2.35141 11.045 2.32548 11.0913C2.29955 11.1375 2.28371 11.1887 2.27902 11.2415C2.25965 11.4915 2.24965 11.7444 2.24902 12C2.24853 13.335 2.52296 14.6559 3.05523 15.8803C3.58749 17.1046 4.36618 18.2063 5.34277 19.1165C5.38397 19.1543 5.43308 19.1824 5.48652 19.1987C5.53995 19.215 5.59637 19.2192 5.65163 19.211C5.7069 19.2027 5.75961 19.1822 5.80593 19.1509C5.85225 19.1197 5.89099 19.0785 5.91934 19.0303C7.74916 15.9254 10.5828 13.5372 13.9528 12.2597V12.2569ZM7.0959 19.9922C7.07126 20.0352 7.05539 20.0827 7.04922 20.1319C7.04305 20.1811 7.04669 20.231 7.05995 20.2788C7.0732 20.3266 7.09579 20.3712 7.12643 20.4102C7.15706 20.4492 7.19512 20.4817 7.2384 20.5059C9.19902 21.6052 11.4795 21.9924 13.6931 21.6019C13.7589 21.5904 13.8204 21.5612 13.871 21.5174C13.9215 21.4736 13.9592 21.417 13.98 21.3534C14.4635 19.8998 14.7104 18.3779 14.7112 16.8459C14.7114 15.7905 14.5938 14.7384 14.3606 13.709C11.2887 14.9059 8.72309 17.1249 7.0959 19.9922Z" fill="white"/>
</svg>
