<svg width="24" height="24" viewBox="0 0 24 24" fill="none" xmlns="http://www.w3.org/2000/svg">
<path d="M21.75 12.0001C21.7469 14.383 20.8726 16.6826 19.2917 18.4657C17.7109 20.2488 15.5326 21.3922 13.1671 21.6807C13.1145 21.6867 13.0611 21.6814 13.0107 21.6653C12.9602 21.6491 12.9137 21.6224 12.8743 21.587C12.8348 21.5516 12.8034 21.5082 12.782 21.4597C12.7605 21.4112 12.7496 21.3587 12.75 21.3057V14.2501H15C15.1028 14.2503 15.2045 14.2294 15.2989 14.1886C15.3933 14.1479 15.4783 14.0882 15.5487 14.0132C15.619 13.9382 15.6732 13.8495 15.7078 13.7527C15.7424 13.6559 15.7568 13.553 15.75 13.4504C15.7334 13.2576 15.6444 13.0781 15.5009 12.9482C15.3574 12.8183 15.1701 12.7475 14.9765 12.7501H12.75V10.5001C12.75 10.1023 12.908 9.72074 13.1893 9.43944C13.4706 9.15813 13.8521 9.0001 14.25 9.0001H15.75C15.8528 9.00032 15.9545 8.97941 16.0489 8.93865C16.1433 8.89789 16.2283 8.83816 16.2987 8.76316C16.369 8.68817 16.4232 8.59951 16.4578 8.5027C16.4924 8.4059 16.5068 8.303 16.5 8.20041C16.4834 8.00722 16.3941 7.82752 16.2502 7.69755C16.1063 7.56757 15.9185 7.49701 15.7246 7.5001H14.25C13.4543 7.5001 12.6912 7.81617 12.1286 8.37878C11.566 8.94139 11.25 9.70445 11.25 10.5001V12.7501H8.99996C8.89714 12.7499 8.79538 12.7708 8.70099 12.8115C8.60659 12.8523 8.52159 12.912 8.45126 12.987C8.38092 13.062 8.32676 13.1507 8.29213 13.2475C8.2575 13.3443 8.24315 13.4472 8.24996 13.5498C8.26655 13.743 8.35579 13.9227 8.49968 14.0527C8.64357 14.1826 8.8314 14.2532 9.02527 14.2501H11.25V21.3076C11.2503 21.3605 11.2394 21.4129 11.218 21.4613C11.1967 21.5097 11.1653 21.5531 11.126 21.5885C11.0866 21.6239 11.0403 21.6506 10.9899 21.6668C10.9395 21.683 10.8863 21.6884 10.8337 21.6826C8.40498 21.3868 6.1758 20.19 4.5874 18.329C2.99901 16.4681 2.16716 14.0786 2.25652 11.6335C2.44402 6.57104 6.54464 2.45541 11.6109 2.25854C12.9225 2.20773 14.231 2.42199 15.4579 2.8885C16.6848 3.35502 17.8051 4.0642 18.7516 4.97363C19.6981 5.88306 20.4515 6.97405 20.9667 8.18136C21.4819 9.38866 21.7483 10.6875 21.75 12.0001Z" fill="white"/>
</svg>
