<svg width="470" height="487" viewBox="0 0 470 487" fill="none" xmlns="http://www.w3.org/2000/svg">
<path opacity="0.1" d="M462.365 119.051L463.633 118.046L462.914 116.596C428.36 46.8433 350.212 2 249.982 2C171.501 2 109.46 27.039 67.0361 69.8648C24.6186 112.685 2 173.098 2 243.5C2 328.443 24.9205 388.855 61.0637 428.049C97.2158 467.253 146.389 485 198.416 485C245.839 485 283.881 471.477 310.836 443.127C335.103 417.606 350.165 380.299 355.208 330.672L379.012 477.75L379.284 479.43H380.986H466H468V477.43V216.347V214.347H466H230.471H228.471V216.347V313.818V315.818H230.471H344.596C325.965 344.186 295.733 363.339 249.285 363.339C217.331 363.339 190.547 352.88 171.741 332.815C152.923 312.738 141.882 282.816 141.882 243.5C141.882 207.965 151.033 178.91 168.988 158.76C186.91 138.647 213.842 127.142 249.982 127.142C307.023 127.142 345.126 158.65 354.646 200.775L355.348 203.877L357.84 201.902L462.365 119.051Z" stroke="white" stroke-width="4"/>
</svg>
