<svg width="594" height="582" viewBox="0 0 594 582" fill="none" xmlns="http://www.w3.org/2000/svg">
<path d="M7.92745 148.842C-33.5335 -1.8752 120.053 -17.2163 230.892 28.2923C295.561 51.6968 338.031 -21.0894 418.143 7.95861C498.256 37.0067 402.218 128.508 524.8 175.469C647.382 222.43 587.538 432.544 480.4 434.965C373.261 437.386 402.7 472.727 295.561 553.578C188.423 634.428 7.92769 522.109 52.8101 403.496C97.6925 284.883 52.8096 311.995 7.92745 148.842Z" stroke="white" stroke-width="1.2494"/>
<path d="M238.515 266.136C233.732 251.781 256.138 228.623 274.156 238.506C290.654 247.557 307.455 241.453 318.555 245.488C347.777 256.11 337.029 261.732 350.091 274.347C365.987 289.698 373.573 329.896 337.029 329.896C306.973 329.896 315.966 344.54 293.46 351.029C270.954 357.517 245.43 346.472 245.43 317.394C245.43 306.474 246.483 290.045 238.515 266.136Z" stroke="white" stroke-width="1.2494"/>
<path d="M28.8871 158.773C-9.23953 20.4524 132.422 4.40057 234.822 46.6705C295.112 68.7701 335.248 2.0459 409.087 28.82C484.573 56.193 396.289 139.887 508.914 183.726C621.798 227.813 568.084 422.48 467.363 424.681C367.232 426.882 394.812 460.342 295.367 534.432C195.923 608.522 29.516 505.41 70.3181 394.936C111.12 286.114 70.4134 309.267 28.8871 158.773Z" stroke="white" stroke-width="1.2494"/>
<path d="M49.8468 168.704C15.0545 42.7801 144.79 26.0177 238.752 65.049C294.664 85.8436 332.466 25.1815 400.031 49.6817C470.891 75.3795 390.359 151.267 493.029 191.983C596.214 233.197 548.63 412.417 454.327 414.397C361.203 416.378 386.924 447.957 295.174 515.287C203.423 582.617 51.1043 488.711 87.8263 386.377C124.548 287.345 88.0172 306.54 49.8468 168.704Z" stroke="white" stroke-width="1.2494"/>
<path d="M70.8066 178.636C39.3486 65.1086 157.159 47.6356 242.683 83.4282C294.215 102.918 329.684 48.3178 390.975 70.544C457.208 94.5668 384.43 162.647 477.144 200.241C570.63 238.581 529.176 402.354 441.29 404.115C355.174 405.875 379.037 435.572 294.98 496.142C210.923 556.712 72.6927 472.013 105.334 377.818C137.976 288.576 105.621 303.813 70.8066 178.636Z" stroke="white" stroke-width="1.2494"/>
<path d="M91.7667 188.568C63.6429 87.4377 169.528 69.2541 246.613 101.808C293.766 119.993 326.901 71.4547 381.919 91.407C443.526 113.755 378.502 174.027 461.259 208.499C545.046 243.965 509.722 392.292 428.254 393.832C349.145 395.373 371.149 423.188 294.786 476.998C218.423 530.807 94.2814 455.315 122.843 369.26C151.404 289.809 123.225 301.087 91.7667 188.568Z" stroke="white" stroke-width="1.2494"/>
<path d="M112.727 199.004C87.9374 110.27 181.897 91.376 250.544 120.691C293.318 137.571 324.12 95.0951 372.863 112.773C429.843 133.446 372.573 185.912 445.374 217.261C519.462 249.854 490.268 382.733 415.218 384.053C343.117 385.374 363.262 411.308 294.593 458.357C225.924 505.407 115.87 439.121 140.352 361.206C164.833 291.544 140.83 298.865 112.727 199.004Z" stroke="white" stroke-width="1.2494"/>
<path d="M133.687 210.036C112.232 133.698 194.266 114.093 254.475 140.17C292.87 155.744 321.338 119.33 363.807 134.735C416.162 153.732 366.645 198.391 429.489 226.618C493.879 256.337 470.814 373.769 402.182 374.87C337.089 375.97 355.375 400.022 294.4 440.311C233.424 480.601 137.459 423.522 157.86 353.746C178.262 293.875 158.434 297.237 133.687 210.036Z" stroke="white" stroke-width="1.2494"/>
<path d="M154.649 221.1C136.528 157.159 206.636 136.843 258.407 159.681C292.422 173.951 318.557 143.599 354.753 156.729C402.48 174.052 360.717 210.903 413.605 236.008C468.296 262.853 451.362 364.839 389.147 365.719C331.061 366.599 347.489 388.77 294.207 422.299C240.926 455.828 159.049 407.956 175.37 346.32C191.691 296.239 176.04 295.643 154.649 221.1Z" stroke="white" stroke-width="1.2494"/>
<path d="M175.61 232.212C160.824 180.667 219.007 159.641 262.339 179.24C291.975 192.205 315.777 167.915 345.698 178.772C388.8 194.419 354.79 223.463 397.722 245.445C442.714 269.417 431.91 355.956 376.112 356.616C325.034 357.276 339.603 377.565 294.016 404.334C248.428 431.103 180.64 392.438 192.88 338.941C205.121 298.65 193.646 294.096 175.61 232.212Z" stroke="white" stroke-width="1.2494"/>
<path d="M196.574 243.394C185.122 204.246 231.379 182.509 266.273 198.869C291.53 210.529 312.998 192.302 336.646 200.884C375.121 214.856 348.865 236.093 381.84 254.953C417.134 276.051 412.459 347.143 363.08 347.583C319.009 348.023 331.719 366.431 293.826 386.439C255.932 406.448 202.232 376.99 210.392 331.632C218.553 301.132 211.253 292.619 196.574 243.394Z" stroke="white" stroke-width="1.2494"/>
<path d="M217.541 254.682C209.423 227.931 243.755 205.483 270.21 218.605C291.088 228.96 310.223 216.794 327.597 223.103C361.445 235.4 342.943 248.83 365.962 264.567C391.556 282.792 393.012 338.437 350.05 338.657C312.987 338.877 323.838 355.403 293.639 368.651C263.439 381.9 223.827 361.648 227.907 324.43C231.987 303.72 228.864 291.249 217.541 254.682Z" stroke="white" stroke-width="1.2494"/>
</svg>
